<svg xmlns="http://www.w3.org/2000/svg" version="1.1" xmlns:xlink="http://www.w3.org/1999/xlink" xmlns:svgjs="http://svgjs.dev/svgjs" width="1500" height="1500" viewBox="0 0 1500 1500"><rect width="1500" height="1500" fill="#000000"></rect><g transform="matrix(0.6666666666666666,0,0,0.6666666666666666,249.39436519522388,628.8506142513595)"><svg viewBox="0 0 396 96" data-background-color="#ffffff" preserveAspectRatio="xMidYMid meet" height="363" width="1500" xmlns="http://www.w3.org/2000/svg" xmlns:xlink="http://www.w3.org/1999/xlink"><g id="tight-bounds" transform="matrix(1,0,0,1,0.24008861730862918,0.0593483126581873)"><svg viewBox="0 0 395.52 95.88139122507123" height="95.88139122507123" width="395.52"><g><svg viewBox="0 0 395.52 95.88139122507123" height="95.88139122507123" width="395.52"><g><svg viewBox="0 0 395.52 95.88139122507123" height="95.88139122507123" width="395.52"><g id="textblocktransform"><svg viewBox="0 0 395.52 95.88139122507123" height="95.88139122507123" width="395.52" id="textblock"><g><svg viewBox="0 0 395.52 95.88139122507123" height="95.88139122507123" width="395.52"><path d="M394.594 20.565C392.735 10.612 387.435 7.845 387.435 7.845 371.165-2.406 350.86-0.196 332.619 1.277 300.414 1.337 268.339 3.526 236.208 4.701 168.767 4.88 100.749 1.934 33.643 9.199 27.339 11.428-6.54 9.637 1.121 21.839 3.129 26.914 10.456 32.547 10.232 37.205 11.236 38.021 12.631 36.15 13.226 37.325 15.309 40.49 18.711 38.997 21.501 40.868 17.614 45.864 20.403 50.024 23.062 54.383 18.377 55.518 12.371 54.98 9.675 58.742 9.396 61.469 7.89 60.952 6.235 60.832 5.026 60.753 2.59 61.051 2.999 61.907 4.394 64.833-1.594 66.525 2.162 69.391-0.422 72.497 3.948 75.184 3.353 78.548 3.278 79.224 3.687 79.802 4.338 79.961 7.22 80.817 3.018 82.489 3.464 84.3 33.029 96.681 65.104 88.122 95.394 93.815 103.259 89.834 97.346 95.228 100.489 94.392 102.943 93.417 104.728 97.457 107.499 95.168 107.927 94.511 107.276 92.959 108.8 93.257 109.6 93.417 110.307 93.377 110.418 92.461 110.586 91.088 109.117 91.944 108.726 91.227 112.947 87.604 111.906 96.223 115.866 95.865 115.68 94.81 114.528 93.297 116.889 93.496 119.232 91.984 119.306 90.73 121.389 94.133 121.463 94.87 121.835 95.387 122.43 95.746 128.938 92.043 135.409 97.059 142.233 95.387 146.417 93.556 150.433 96.383 154.672 95.686 156.16 95.129 157.666 94.133 159.098 95.805 176.632 96.164 195.319 94.671 211.943 95.865 256.364 93.636 303.836 96.781 350.674 93.835 361.719 92.7 373.192 91.088 383.958 89.794 383.958 89.794 392.679 86.251 392.679 70.327S394.538 56.394 394.817 43.714C395.096 31.035 396.398 30.517 394.538 20.565Z" opacity="1" fill="#ffffff" data-fill-palette-color="tertiary"></path><g transform="matrix(1,0,0,1,55.76832,26.230666666666668)"><svg width="283.98335999999995" viewBox="3.8 -39.3 315.88 48.3" height="43.42005789173789" data-palette-color="#ffffff"><path d="M27.9 0L3.8 0 3.8-5.7 13.4-5.7 13.4-21.85 5.05-21.85 5.05-27.5 19.4-27.5 19.4-5.7 27.9-5.7 27.9 0ZM15.9-32.1L15.9-32.1Q14-32.1 12.9-33.08 11.8-34.05 11.8-35.7L11.8-35.7Q11.8-37.35 12.9-38.33 14-39.3 15.9-39.3L15.9-39.3Q17.8-39.3 18.9-38.33 20-37.35 20-35.7L20-35.7Q20-34.05 18.9-33.08 17.8-32.1 15.9-32.1ZM47.35 0.5L47.35 0.5Q43.95 0.5 41.95-1.43 39.95-3.35 39.95-6.7L39.95-6.7 41.35-5.25 39.95-5.25 39.95 0 33.85 0 33.85-36.5 40.1-36.5 40.1-28.8 39.9-22.25 41.35-22.25 39.95-20.8Q39.95-24.15 41.95-26.08 43.95-28 47.35-28L47.35-28Q51.5-28 54-25.15 56.5-22.3 56.5-17.45L56.5-17.45 56.5-10Q56.5-5.2 54-2.35 51.5 0.5 47.35 0.5ZM45.15-4.9L45.15-4.9Q47.55-4.9 48.9-6.3 50.25-7.7 50.25-10.3L50.25-10.3 50.25-17.2Q50.25-19.8 48.9-21.2 47.55-22.6 45.15-22.6L45.15-22.6Q42.8-22.6 41.45-21.18 40.1-19.75 40.1-17.2L40.1-17.2 40.1-10.3Q40.1-7.75 41.45-6.33 42.8-4.9 45.15-4.9ZM75.05 0.5L75.05 0.5Q71.55 0.5 68.95-0.85 66.34-2.2 64.92-4.63 63.5-7.05 63.5-10.3L63.5-10.3 63.5-17.2Q63.5-20.45 64.92-22.88 66.34-25.3 68.95-26.65 71.55-28 75.05-28L75.05-28Q78.5-28 81.07-26.65 83.65-25.3 85.07-22.88 86.5-20.45 86.5-17.2L86.5-17.2 86.5-12.25 69.55-12.25 69.55-10.3Q69.55-7.4 70.95-5.93 72.34-4.45 75.09-4.45L75.09-4.45Q77.2-4.45 78.5-5.18 79.8-5.9 80.15-7.3L80.15-7.3 86.3-7.3Q85.59-3.75 82.52-1.63 79.45 0.5 75.05 0.5ZM80.9-16.25L80.45-15.75 80.45-17.25Q80.45-20.1 79.09-21.63 77.75-23.15 75.05-23.15L75.05-23.15Q72.34-23.15 70.95-21.6 69.55-20.05 69.55-17.2L69.55-17.2 69.55-16.15 80.9-16.25ZM100.94 0L94.69 0 94.69-27.5 100.59-27.5 100.59-22.25 102.14-22.25 100.29-19.05Q100.29-23.5 102.29-25.75 104.29-28 108.19-28L108.19-28Q112.64-28 115.19-25.25 117.74-22.5 117.74-17.65L117.74-17.65 117.74-15.65 111.19-15.65 111.19-17.2Q111.19-19.85 109.82-21.3 108.44-22.75 106.04-22.75L106.04-22.75Q103.59-22.75 102.27-21.3 100.94-19.85 100.94-17.2L100.94-17.2 100.94 0ZM135.04 0.5L135.04 0.5Q131.54 0.5 128.94-0.85 126.34-2.2 124.92-4.63 123.49-7.05 123.49-10.3L123.49-10.3 123.49-17.2Q123.49-20.45 124.92-22.88 126.34-25.3 128.94-26.65 131.54-28 135.04-28L135.04-28Q138.49-28 141.06-26.65 143.64-25.3 145.06-22.88 146.49-20.45 146.49-17.2L146.49-17.2 146.49-12.25 129.54-12.25 129.54-10.3Q129.54-7.4 130.94-5.93 132.34-4.45 135.09-4.45L135.09-4.45Q137.19-4.45 138.49-5.18 139.79-5.9 140.14-7.3L140.14-7.3 146.29-7.3Q145.59-3.75 142.52-1.63 139.44 0.5 135.04 0.5ZM140.89-16.25L140.44-15.75 140.44-17.25Q140.44-20.1 139.09-21.63 137.74-23.15 135.04-23.15L135.04-23.15Q132.34-23.15 130.94-21.6 129.54-20.05 129.54-17.2L129.54-17.2 129.54-16.15 140.89-16.25ZM176.09 0L153.89 0 153.89-5.65 168.24-22 154.34-22 154.34-27.5 175.54-27.5 175.54-21.85 161.04-5.5 176.09-5.5 176.09 0ZM190.09 0L183.84 0 183.84-36.5 190.09-36.5 190.09-27.5 189.94-22.25 191.64-22.25 189.94-20.8Q189.94-24.2 191.91-26.1 193.89-28 197.34-28L197.34-28Q201.39-28 203.81-25.3 206.24-22.6 206.24-18.05L206.24-18.05 206.24 0 199.99 0 199.99-17.4Q199.99-19.9 198.69-21.25 197.39-22.6 195.04-22.6L195.04-22.6Q192.74-22.6 191.41-21.2 190.09-19.8 190.09-17.2L190.09-17.2 190.09 0ZM220.08 0L213.83 0 213.83-27.5 219.93-27.5 219.93-22.25 221.63-22.25 219.93-20.8Q219.93-24.2 221.91-26.1 223.88-28 227.33-28L227.33-28Q231.38-28 233.81-25.3 236.23-22.6 236.23-18.05L236.23-18.05 236.23 0 229.98 0 229.98-17.4Q229.98-19.9 228.68-21.25 227.38-22.6 225.03-22.6L225.03-22.6Q222.73-22.6 221.41-21.2 220.08-19.8 220.08-17.2L220.08-17.2 220.08 0ZM254.83 9L248.28 9 252.13-1.5 241.88-27.5 248.73-27.5 253.83-13.45Q254.23-12.3 254.63-10.68 255.03-9.05 255.23-8L255.23-8Q255.48-9.05 255.88-10.68 256.28-12.3 256.68-13.45L256.68-13.45 261.48-27.5 268.08-27.5 254.83 9ZM297.88 0L273.78 0 273.78-5.7 283.38-5.7 283.38-21.85 275.03-21.85 275.03-27.5 289.38-27.5 289.38-5.7 297.88-5.7 297.88 0ZM285.88-32.1L285.88-32.1Q283.98-32.1 282.88-33.08 281.78-34.05 281.78-35.7L281.78-35.7Q281.78-37.35 282.88-38.33 283.98-39.3 285.88-39.3L285.88-39.3Q287.78-39.3 288.88-38.33 289.98-37.35 289.98-35.7L289.98-35.7Q289.98-34.05 288.88-33.08 287.78-32.1 285.88-32.1ZM314.98 0.5L314.98 0.5Q312.83 0.5 311.55-0.75 310.28-2 310.28-4.15L310.28-4.15Q310.28-6.3 311.55-7.58 312.83-8.85 314.98-8.85L314.98-8.85Q317.13-8.85 318.4-7.58 319.68-6.3 319.68-4.15L319.68-4.15Q319.68-2 318.4-0.75 317.13 0.5 314.98 0.5Z" opacity="1" transform="matrix(1,0,0,1,0,0)" fill="#000000" class="wordmark-text-0" data-fill-palette-color="quaternary" id="text-0"></path></svg></g></svg></g></svg></g></svg></g></svg></g><defs></defs></svg><rect width="395.52" height="95.88139122507123" fill="none" stroke="none" visibility="hidden"></rect></g></svg></g></svg>