<?xml version="1.0" standalone="no"?>
<!DOCTYPE svg PUBLIC "-//W3C//DTD SVG 20010904//EN"
 "http://www.w3.org/TR/2001/REC-SVG-20010904/DTD/svg10.dtd">
<svg version="1.0" xmlns="http://www.w3.org/2000/svg"
 width="315.000000pt" height="315.000000pt" viewBox="0 0 315.000000 315.000000"
 preserveAspectRatio="xMidYMid meet">
<metadata>
Created by potrace 1.14, written by Peter Selinger 2001-2017
</metadata>
<g transform="translate(0.000000,315.000000) scale(0.100000,-0.100000)"
fill="#000000" stroke="none">
<path d="M1537 3114 c-1 -2 -35 -4 -75 -5 -71 -2 -223 -24 -252 -36 -8 -3 -19
-5 -24 -4 -4 1 -14 -4 -22 -10 -8 -6 -14 -9 -14 -6 0 7 -120 -34 -195 -66 -63
-27 -192 -101 -268 -154 -90 -62 -230 -186 -222 -195 3 -3 -5 -10 -18 -17 -35
-20 -230 -291 -209 -291 4 0 2 -4 -4 -8 -14 -8 -94 -176 -94 -197 0 -7 -5 -17
-11 -20 -6 -4 -8 -13 -5 -20 2 -7 1 -16 -4 -21 -9 -11 -34 -97 -49 -174 -6
-30 -14 -66 -17 -80 -3 -14 -7 -99 -9 -190 -3 -169 9 -290 40 -408 60 -231
163 -431 314 -612 77 -92 198 -207 214 -202 4 1 7 -2 7 -6 0 -11 125 -102 139
-102 6 0 11 -5 11 -11 0 -5 4 -8 9 -5 5 4 11 3 13 -2 6 -15 231 -124 283 -137
6 -1 17 -5 25 -8 43 -17 218 -54 295 -63 53 -6 323 -6 355 1 14 2 41 7 60 9
42 6 52 8 168 37 51 12 92 25 92 28 0 4 8 7 18 8 9 1 40 12 67 24 28 13 53 22
58 21 4 -1 7 3 7 10 0 6 3 9 6 5 3 -3 27 7 52 21 26 15 60 34 75 42 16 8 40
24 53 37 13 12 24 20 24 17 0 -6 56 31 80 53 8 8 26 23 40 34 60 49 120 109
120 119 0 6 5 8 10 5 6 -3 10 -3 10 2 0 4 13 22 28 38 75 81 228 313 236 358
1 7 9 26 18 43 19 34 75 195 82 234 2 14 9 45 14 70 20 89 26 157 26 300 -1
174 -8 244 -35 355 -6 22 -11 46 -11 53 -1 6 -5 12 -10 12 -5 0 -7 4 -3 10 7
11 -63 202 -79 212 -6 4 -8 8 -4 8 16 0 -117 230 -134 230 -5 0 -6 5 -3 10 3
6 2 10 -2 10 -5 0 -16 12 -25 28 -9 15 -32 44 -50 64 -18 20 -40 45 -49 55
-69 79 -297 263 -327 263 -5 0 -15 7 -22 15 -7 8 -16 12 -21 9 -5 -3 -9 -1 -9
4 0 10 -60 38 -72 34 -5 -1 -8 2 -8 6 0 5 -17 16 -37 25 -148 65 -327 112
-463 122 -103 8 -190 12 -193 9z"/>
</g>
</svg>
